<svg width="506" height="356" viewBox="0 0 506 356" fill="none" xmlns="http://www.w3.org/2000/svg">
<path d="M206 244L184.5 251" stroke="#3DD47E"/>
<path d="M245 276L229.252 294.504" stroke="#3DD47E"/>
<path d="M226 300L210.252 318.504" stroke="#3DD47E"/>
<path d="M207 324L191.252 342.504" stroke="#3DD47E"/>
<path d="M150 265.5L172.5 256" stroke="#3DD47E"/>
<line x1="122.723" y1="281.584" x2="137.723" y2="271.584" stroke="#3DD47E"/>
<line x1="101.668" y1="298.626" x2="110.668" y2="290.626" stroke="#3DD47E"/>
<line x1="85.6678" y1="313.626" x2="94.6678" y2="305.626" stroke="#3DD47E"/>
<line x1="69.6678" y1="326.626" x2="78.6678" y2="318.626" stroke="#3DD47E"/>
<path d="M236.671 262.888L217.283 277.534" stroke="#3DD47E"/>
<path d="M193 302.5L174.217 317.915" stroke="#3DD47E"/>
<path d="M172.458 319L158 330" stroke="#3DD47E"/>
<path d="M156.283 332L141.825 343" stroke="#3DD47E"/>
<path d="M214.236 282.443L196 298.5" stroke="#3DD47E"/>
<path d="M272.605 251.593L246.033 222.759L294.441 204.808L272.605 251.593Z" fill="#191A23" stroke="white"/>
<path d="M475.447 52.7586L490.261 139.048C495.167 167.625 475.978 194.768 447.401 199.674L310.815 223.123C282.239 228.029 255.095 208.84 250.189 180.263L235.375 93.9739C230.469 65.3972 249.658 38.254 278.235 33.3477L414.82 9.89881C443.397 4.99276 470.541 24.1818 475.447 52.7586Z" fill="#191A23" stroke="white"/>
<path d="M265.737 105.111C264.837 105.261 264.006 105.235 263.242 105.034C262.479 104.833 261.837 104.447 261.316 103.877C260.805 103.293 260.469 102.516 260.307 101.545L260.245 101.173L261.718 100.927L261.781 101.3C261.952 102.33 262.382 103.049 263.071 103.457C263.757 103.854 264.574 103.973 265.521 103.815C266.492 103.653 267.195 103.311 267.631 102.788C268.067 102.265 268.23 101.673 268.119 101.01C268.042 100.548 267.863 100.201 267.581 99.9681C267.31 99.7333 266.954 99.5676 266.512 99.4709C266.068 99.3624 265.557 99.2895 264.979 99.252L264.018 99.1751C263.264 99.1061 262.586 98.9818 261.985 98.8023C261.383 98.6228 260.886 98.3407 260.493 97.956C260.111 97.5575 259.861 97.0091 259.745 96.3107C259.628 95.6123 259.699 94.9801 259.958 94.4139C260.228 93.8457 260.654 93.3732 261.236 92.9964C261.83 92.6176 262.541 92.3591 263.369 92.221C264.21 92.0809 264.986 92.1036 265.698 92.289C266.42 92.4606 267.018 92.799 267.492 93.304C267.975 93.7952 268.288 94.4669 268.43 95.3192L268.554 96.0649L267.08 96.3105L266.956 95.5648C266.855 94.9611 266.644 94.4975 266.323 94.174C266.013 93.8485 265.618 93.6345 265.139 93.5319C264.671 93.4273 264.154 93.4224 263.585 93.5171C262.769 93.6533 262.142 93.9463 261.706 94.3961C261.268 94.834 261.105 95.3844 261.215 96.0473C261.288 96.4853 261.454 96.8226 261.712 97.0593C261.971 97.2961 262.31 97.4706 262.73 97.5831C263.149 97.6837 263.641 97.7537 264.207 97.7931L265.169 97.8701C265.916 97.9036 266.597 98.0091 267.211 98.1866C267.834 98.3504 268.356 98.6344 268.776 99.0388C269.194 99.4314 269.465 99.9946 269.587 100.729C269.709 101.462 269.632 102.132 269.356 102.738C269.08 103.343 268.63 103.856 268.007 104.277C267.393 104.683 266.637 104.961 265.737 105.111ZM276.519 103.314C275.643 103.46 274.843 103.405 274.119 103.148C273.393 102.88 272.791 102.439 272.311 101.825C271.832 101.212 271.518 100.461 271.37 99.5736L271.335 99.3605C271.185 98.4609 271.237 97.6432 271.492 96.9073C271.746 96.1715 272.168 95.5658 272.758 95.0904C273.346 94.6031 274.06 94.2894 274.9 94.1493C275.717 94.0131 276.469 94.0703 277.155 94.3209C277.84 94.5596 278.414 94.9748 278.878 95.5666C279.341 96.1585 279.646 96.8923 279.792 97.7682L279.899 98.4074L272.814 99.5883C273.006 100.517 273.43 101.201 274.087 101.639C274.742 102.065 275.495 102.207 276.348 102.065C277.093 101.941 277.639 101.673 277.984 101.263C278.329 100.853 278.569 100.393 278.703 99.8841L280.008 100.269C279.892 100.665 279.704 101.074 279.446 101.494C279.199 101.912 278.842 102.288 278.375 102.621C277.919 102.953 277.301 103.184 276.519 103.314ZM272.64 98.4313L278.286 97.4901C278.104 96.6931 277.722 96.1121 277.138 95.7472C276.566 95.3803 275.889 95.2619 275.108 95.3921C274.315 95.5243 273.701 95.8578 273.267 96.3924C272.833 96.927 272.624 97.6067 272.64 98.4313ZM287.027 101.562C286.151 101.708 285.351 101.653 284.627 101.397C283.901 101.128 283.298 100.687 282.819 100.074C282.339 99.4604 282.026 98.7098 281.878 97.8221L281.842 97.609C281.692 96.7094 281.744 95.8917 281.999 95.1558C282.253 94.42 282.676 93.8143 283.265 93.3389C283.853 92.8516 284.567 92.5379 285.408 92.3978C286.225 92.2616 286.976 92.3188 287.663 92.5694C288.347 92.8081 288.921 93.2233 289.385 93.8151C289.849 94.407 290.153 95.1408 290.299 96.0167L290.406 96.6559L283.322 97.8368C283.513 98.766 283.937 99.4496 284.594 99.8875C285.249 100.314 286.003 100.456 286.855 100.314C287.601 100.189 288.146 99.9219 288.491 99.5116C288.837 99.1012 289.076 98.6416 289.211 98.1326L290.516 98.5172C290.399 98.9138 290.212 99.3222 289.953 99.7424C289.707 100.161 289.35 100.536 288.882 100.87C288.426 101.201 287.808 101.432 287.027 101.562ZM283.147 96.6798L288.793 95.7386C288.612 94.9416 288.229 94.3606 287.645 93.9957C287.073 93.6288 286.396 93.5104 285.615 93.6406C284.822 93.7728 284.208 94.1063 283.774 94.6409C283.34 95.1755 283.131 95.8552 283.147 96.6798ZM298.022 99.474L295.951 87.0454L297.442 86.7968L298.363 92.3186L304.186 91.3479L303.266 85.8261L304.757 85.5775L306.829 98.006L305.337 98.2546L304.411 92.6973L298.587 93.668L299.514 99.2253L298.022 99.474ZM313.781 97.1025C312.906 97.2485 312.1 97.1943 311.364 96.9398C310.64 96.6834 310.033 96.2553 309.544 95.6556C309.064 95.0421 308.749 94.2796 308.597 93.3682L308.558 93.1373C308.408 92.2378 308.461 91.42 308.715 90.6842C308.981 89.9463 309.415 89.3387 310.017 88.8613C310.631 88.3819 311.375 88.0692 312.251 87.9232C313.127 87.7772 313.927 87.8324 314.651 88.0888C315.387 88.3433 315.995 88.7773 316.474 89.3908C316.965 90.0024 317.286 90.7579 317.436 91.6575L317.474 91.8883C317.626 92.7998 317.569 93.6244 317.303 94.3622C317.046 95.0862 316.611 95.688 315.998 96.1674C315.396 96.6448 314.657 96.9565 313.781 97.1025ZM313.571 95.8419C314.495 95.688 315.18 95.2757 315.628 94.6049C316.086 93.9204 316.232 93.0809 316.066 92.0866L316.039 91.9268C315.873 90.9326 315.464 90.1918 314.811 89.7045C314.168 89.2035 313.385 89.0299 312.461 89.1838C311.55 89.3357 310.866 89.754 310.408 90.4385C309.948 91.1113 309.801 91.9448 309.967 92.939L309.994 93.0988C310.159 94.0931 310.57 94.8398 311.225 95.3389C311.878 95.8262 312.66 95.9938 313.571 95.8419ZM321.737 95.5209L318.55 87.1288L319.97 86.892L322.699 94.3935L322.947 94.352L323.557 86.2942L325.882 85.9064L329.073 93.331L329.321 93.2895L329.469 85.3086L330.889 85.0718L330.597 94.0441L328.2 94.4436L324.992 87.0221L324.761 87.0606L324.134 95.1214L321.737 95.5209ZM343.956 92.101C343.009 92.2589 342.113 92.192 341.266 91.9005C340.431 91.5937 339.716 91.0709 339.119 90.3322C338.534 89.5782 338.143 88.6093 337.946 87.4257L337.393 84.1114C337.097 82.3359 337.37 80.8914 338.212 79.7778C339.051 78.6511 340.326 77.9453 342.036 77.6603C343.732 77.3774 345.116 77.6131 346.188 78.3671C347.271 79.1057 347.941 80.2445 348.197 81.7832L348.21 81.8621L345.646 82.2896L345.62 82.1318C345.538 81.6452 345.36 81.2222 345.084 80.8627C344.821 80.501 344.467 80.2424 344.022 80.0867C343.574 79.918 343.042 79.8851 342.424 79.9881C341.503 80.1416 340.827 80.5449 340.395 81.1982C339.963 81.8514 339.828 82.6646 339.991 83.6379L340.556 87.031C340.716 87.9911 341.109 88.7232 341.733 89.2274C342.356 89.7184 343.141 89.8849 344.088 89.7271C345.034 89.5692 345.683 89.2043 346.034 88.6321C346.385 88.06 346.496 87.3926 346.369 86.6298L346.336 86.4325L343.062 86.9784L342.693 84.7689L348.533 83.7955L349.71 90.858L347.303 91.2592L347.083 89.9374L346.728 89.9966C346.673 90.2356 346.561 90.4975 346.392 90.7825C346.237 91.0652 345.969 91.3261 345.59 91.565C345.211 91.804 344.666 91.9826 343.956 92.101ZM352.277 90.4302L350.646 80.6452L353.092 80.2374L353.276 81.3422L353.631 81.283C353.71 80.8643 353.899 80.5355 354.197 80.2966C354.508 80.0554 354.887 79.8976 355.334 79.8231L356.518 79.6257L356.886 81.8353L355.663 82.0391C355.032 82.1444 354.541 82.4019 354.19 82.8119C353.837 83.2086 353.719 83.7555 353.835 84.4526L354.762 90.0158L352.277 90.4302ZM364.454 88.6842C363.48 88.8465 362.573 88.795 361.731 88.5298C360.889 88.2646 360.182 87.7944 359.61 87.1193C359.038 86.4442 358.664 85.5805 358.489 84.5284L358.436 84.2127C358.261 83.1606 358.334 82.2224 358.657 81.3982C358.979 80.574 359.495 79.9 360.205 79.3761C360.915 78.8522 361.757 78.5091 362.73 78.3469C363.704 78.1846 364.611 78.2361 365.453 78.5013C366.295 78.7665 367.002 79.2367 367.574 79.9118C368.146 80.5869 368.52 81.4506 368.695 82.5027L368.748 82.8184C368.923 83.8705 368.849 84.8087 368.527 85.6329C368.205 86.4571 367.689 87.1311 366.979 87.655C366.269 88.1789 365.427 88.522 364.454 88.6842ZM364.085 86.4747C364.848 86.3476 365.439 85.999 365.857 85.4291C366.274 84.846 366.405 84.0942 366.252 83.1735L366.219 82.9763C366.066 82.0556 365.698 81.3937 365.118 80.9903C364.548 80.5717 363.875 80.427 363.099 80.5564C362.336 80.6835 361.746 81.0387 361.33 81.6217C360.911 82.1917 360.779 82.9369 360.932 83.8576L360.965 84.0549C361.118 84.9755 361.487 85.644 362.07 86.0605C362.651 86.4638 363.322 86.6019 364.085 86.4747ZM372.582 87.0455L369.57 77.4907L372.036 77.0796L374.255 85.043L374.61 84.9838L374.521 76.6653L378.506 76.001L381.121 83.8987L381.476 83.8395L380.992 75.5866L383.458 75.1756L383.708 85.1908L379.585 85.8781L376.971 77.9804L376.616 78.0396L376.705 86.3582L372.582 87.0455ZM268.394 127.73L266.548 116.651L262.553 117.317L262.328 115.967L271.809 114.387L272.034 115.736L268.039 116.402L269.886 127.481L268.394 127.73ZM274.479 126.716L273.032 118.034L274.399 117.806L274.577 118.871L274.825 118.83C274.916 118.425 275.106 118.107 275.396 117.877C275.686 117.646 276.092 117.487 276.613 117.4L277.642 117.229L277.856 118.507L276.737 118.693C276.11 118.798 275.63 119.06 275.299 119.481C274.977 119.887 274.878 120.457 275 121.191L275.882 126.482L274.479 126.716ZM283.582 125.454C282.978 125.555 282.41 125.54 281.878 125.41C281.345 125.279 280.903 125.037 280.552 124.682C280.201 124.327 279.977 123.859 279.88 123.279C279.781 122.687 279.843 122.178 280.063 121.752C280.282 121.314 280.625 120.959 281.09 120.687C281.554 120.403 282.093 120.209 282.709 120.107L285.639 119.618L285.532 118.979C285.429 118.364 285.165 117.909 284.739 117.615C284.325 117.319 283.762 117.23 283.052 117.349C282.354 117.465 281.838 117.728 281.505 118.136C281.169 118.532 280.978 119.027 280.93 119.618L279.546 119.411C279.607 118.902 279.759 118.427 280.001 117.985C280.242 117.531 280.597 117.144 281.067 116.822C281.546 116.487 282.147 116.259 282.869 116.138C283.981 115.953 284.894 116.099 285.606 116.576C286.316 117.042 286.758 117.795 286.932 118.837L287.586 122.761C287.645 123.116 287.84 123.266 288.172 123.211L288.971 123.078L289.169 124.267L287.944 124.471C287.553 124.536 287.222 124.482 286.95 124.309C286.675 124.123 286.508 123.847 286.446 123.48L286.432 123.391L286.219 123.427C286.126 123.673 285.988 123.94 285.804 124.226C285.631 124.498 285.367 124.743 285.014 124.96C284.663 125.189 284.186 125.353 283.582 125.454ZM283.541 124.22C284.369 124.082 284.997 123.728 285.426 123.158C285.864 122.574 286.008 121.838 285.861 120.95L285.828 120.755L282.952 121.234C282.395 121.327 281.954 121.528 281.629 121.838C281.313 122.134 281.196 122.524 281.277 123.01C281.358 123.495 281.604 123.843 282.017 124.054C282.441 124.263 282.949 124.319 283.541 124.22ZM291.09 123.947L289.643 115.265L291.01 115.037L291.255 116.51L291.504 116.469C291.624 116.023 291.882 115.597 292.276 115.191C292.681 114.77 293.327 114.486 294.215 114.338C294.866 114.23 295.468 114.269 296.023 114.457C296.589 114.642 297.07 114.975 297.467 115.457C297.863 115.938 298.127 116.569 298.257 117.351L299.133 122.606L297.73 122.84L296.872 117.691C296.728 116.827 296.404 116.236 295.901 115.919C295.41 115.599 294.798 115.5 294.064 115.623C293.223 115.763 292.582 116.149 292.14 116.783C291.71 117.414 291.585 118.268 291.765 119.345L292.493 123.713L291.09 123.947ZM305.518 121.797C304.441 121.977 303.488 121.88 302.659 121.507C301.843 121.133 301.268 120.419 300.934 119.368L302.215 118.844C302.405 119.397 302.657 119.817 302.973 120.105C303.287 120.381 303.645 120.558 304.047 120.637C304.46 120.702 304.885 120.699 305.323 120.626C305.974 120.517 306.467 120.301 306.802 119.977C307.138 119.654 307.269 119.273 307.196 118.835C307.121 118.385 306.885 118.102 306.488 117.986C306.102 117.856 305.585 117.784 304.938 117.77L304.189 117.767C303.617 117.765 303.083 117.702 302.588 117.578C302.093 117.453 301.681 117.242 301.351 116.944C301.022 116.647 300.814 116.237 300.727 115.716C300.597 114.935 300.797 114.275 301.328 113.737C301.858 113.198 302.621 112.846 303.615 112.68C304.597 112.516 305.428 112.609 306.107 112.958C306.795 113.294 307.295 113.849 307.607 114.624L306.349 115.181C306.138 114.571 305.811 114.175 305.367 113.994C304.921 113.801 304.402 113.753 303.81 113.852C303.218 113.951 302.77 114.141 302.464 114.423C302.156 114.693 302.038 115.042 302.109 115.468C302.178 115.882 302.389 116.163 302.742 116.311C303.105 116.445 303.567 116.514 304.127 116.518L304.876 116.521C305.509 116.525 306.084 116.581 306.601 116.69C307.128 116.784 307.562 116.98 307.903 117.276C308.256 117.57 308.479 117.995 308.572 118.551C308.714 119.403 308.504 120.113 307.942 120.682C307.391 121.248 306.583 121.62 305.518 121.797ZM312.856 120.319L311.612 112.862L308.949 113.306L308.745 112.08L311.408 111.637L311.038 109.417C310.959 108.944 311.027 108.549 311.242 108.233C311.469 107.916 311.831 107.716 312.328 107.633L314.512 107.269L314.714 108.476L312.92 108.775C312.565 108.834 312.417 109.041 312.476 109.396L312.811 111.403L315.545 110.947L315.749 112.172L313.015 112.628L314.258 120.085L312.856 120.319ZM322.626 118.946C321.75 119.092 320.944 119.037 320.209 118.783C319.484 118.526 318.878 118.098 318.389 117.499C317.909 116.885 317.594 116.123 317.442 115.211L317.403 114.98C317.253 114.081 317.305 113.263 317.56 112.527C317.826 111.789 318.26 111.182 318.862 110.704C319.475 110.225 320.22 109.912 321.096 109.766C321.972 109.62 322.772 109.675 323.496 109.932C324.232 110.186 324.839 110.62 325.319 111.234C325.81 111.845 326.131 112.601 326.281 113.501L326.319 113.731C326.471 114.643 326.414 115.467 326.148 116.205C325.891 116.929 325.456 117.531 324.843 118.01C324.241 118.488 323.502 118.8 322.626 118.946ZM322.416 117.685C323.339 117.531 324.025 117.119 324.473 116.448C324.93 115.763 325.076 114.924 324.911 113.93L324.884 113.77C324.718 112.776 324.309 112.035 323.656 111.548C323.013 111.046 322.229 110.873 321.306 111.027C320.395 111.179 319.71 111.597 319.253 112.282C318.793 112.954 318.646 113.788 318.812 114.782L318.838 114.942C319.004 115.936 319.414 116.683 320.069 117.182C320.722 117.669 321.505 117.837 322.416 117.685ZM329.548 117.536L328.1 108.854L329.467 108.626L329.645 109.691L329.894 109.65C329.984 109.246 330.175 108.928 330.465 108.697C330.755 108.466 331.16 108.308 331.681 108.221L332.711 108.049L332.924 109.327L331.805 109.514C331.178 109.618 330.699 109.881 330.367 110.301C330.046 110.707 329.946 111.278 330.068 112.011L330.95 117.302L329.548 117.536ZM336.24 116.421L334.793 107.738L336.16 107.511L336.341 108.594L336.589 108.552C336.704 108.217 336.929 107.887 337.264 107.564C337.599 107.24 338.11 107.021 338.797 106.907C339.472 106.794 340.041 106.852 340.504 107.078C340.98 107.303 341.348 107.613 341.608 108.008L341.857 107.966C341.987 107.506 342.229 107.095 342.582 106.732C342.947 106.367 343.496 106.124 344.23 106.001C344.81 105.904 345.339 105.938 345.816 106.102C346.293 106.265 346.694 106.552 347.018 106.96C347.351 107.354 347.569 107.859 347.672 108.475L348.651 114.352L347.249 114.586L346.29 108.833C346.193 108.253 345.945 107.826 345.547 107.552C345.158 107.264 344.662 107.17 344.058 107.271C343.419 107.377 342.927 107.672 342.582 108.155C342.248 108.637 342.147 109.268 342.277 110.049L343.147 115.269L341.744 115.503L340.786 109.751C340.689 109.171 340.441 108.743 340.043 108.469C339.654 108.181 339.158 108.088 338.554 108.188C337.915 108.295 337.423 108.59 337.078 109.073C336.744 109.554 336.643 110.186 336.773 110.967L337.643 116.187L336.24 116.421ZM355.535 113.46C354.659 113.606 353.859 113.551 353.135 113.294C352.409 113.026 351.806 112.585 351.327 111.972C350.847 111.358 350.533 110.607 350.385 109.72L350.35 109.507C350.2 108.607 350.252 107.789 350.507 107.053C350.761 106.318 351.183 105.712 351.773 105.236C352.361 104.749 353.075 104.435 353.916 104.295C354.732 104.159 355.484 104.216 356.171 104.467C356.855 104.706 357.429 105.121 357.893 105.713C358.356 106.305 358.661 107.038 358.807 107.914L358.914 108.554L351.83 109.734C352.021 110.664 352.445 111.347 353.102 111.785C353.757 112.211 354.511 112.353 355.363 112.211C356.109 112.087 356.654 111.82 356.999 111.409C357.345 110.999 357.584 110.539 357.718 110.03L359.023 110.415C358.907 110.811 358.72 111.22 358.461 111.64C358.215 112.058 357.857 112.434 357.39 112.767C356.934 113.099 356.316 113.33 355.535 113.46ZM351.655 108.577L357.301 107.636C357.12 106.839 356.737 106.258 356.153 105.893C355.581 105.526 354.904 105.408 354.123 105.538C353.33 105.67 352.716 106.004 352.282 106.538C351.848 107.073 351.639 107.753 351.655 108.577ZM365.74 111.759C364.994 111.883 364.278 111.82 363.592 111.569C362.905 111.319 362.322 110.887 361.843 110.273C361.363 109.66 361.047 108.891 360.893 107.968L360.854 107.737C360.7 106.814 360.752 105.99 361.008 105.266C361.263 104.531 361.668 103.934 362.224 103.476C362.791 103.005 363.452 102.706 364.21 102.579C364.814 102.479 365.336 102.477 365.778 102.573C366.23 102.656 366.607 102.8 366.909 103.005C367.209 103.199 367.452 103.42 367.64 103.668L367.888 103.627L367.036 98.5134L368.439 98.2796L370.51 110.708L369.143 110.936L368.903 109.498L368.655 109.539C368.491 110.017 368.189 110.468 367.749 110.895C367.309 111.321 366.64 111.609 365.74 111.759ZM365.906 110.454C366.805 110.304 367.486 109.898 367.948 109.237C368.419 108.563 368.569 107.711 368.397 106.681L368.371 106.521C368.199 105.491 367.782 104.74 367.119 104.266C366.466 103.779 365.69 103.61 364.79 103.76C363.902 103.908 363.217 104.32 362.733 104.997C362.26 105.66 362.109 106.506 362.281 107.536L362.307 107.696C362.479 108.726 362.897 109.483 363.562 109.969C364.237 110.44 365.018 110.602 365.906 110.454ZM377.371 109.565L377.149 108.233L378.889 107.943L377.261 98.1776L375.521 98.4677L375.299 97.136L381.531 96.0972C382.253 95.9769 382.914 96.0005 383.514 96.1682C384.125 96.3339 384.624 96.6278 385.011 97.05C385.407 97.4583 385.658 97.9762 385.763 98.6035L385.786 98.7456C385.883 99.3256 385.85 99.8237 385.689 100.24C385.525 100.644 385.307 100.979 385.035 101.243C384.76 101.496 384.483 101.694 384.203 101.838L384.245 102.087C384.552 102.108 384.884 102.199 385.239 102.359C385.592 102.507 385.907 102.752 386.183 103.096C386.471 103.437 386.663 103.897 386.76 104.477L386.79 104.655C386.902 105.33 386.834 105.943 386.585 106.496C386.347 107.034 385.965 107.481 385.44 107.836C384.925 108.177 384.307 108.408 383.585 108.529L377.371 109.565ZM380.377 107.677L383.2 107.206C383.981 107.076 384.549 106.793 384.902 106.357C385.255 105.921 385.379 105.389 385.274 104.762L385.248 104.602C385.143 103.974 384.853 103.512 384.378 103.214C383.902 102.916 383.274 102.832 382.493 102.962L379.67 103.433L380.377 107.677ZM379.445 102.084L382.321 101.604C383.031 101.486 383.57 101.214 383.937 100.787C384.302 100.349 384.435 99.8346 384.336 99.2428L384.307 99.0652C384.206 98.4615 383.913 98.0177 383.428 97.7336C382.952 97.4357 382.354 97.347 381.632 97.4673L378.755 97.9468L379.445 102.084ZM389.748 107.501L388.301 98.8191L389.668 98.5912L389.846 99.6565L390.094 99.6151C390.185 99.2106 390.375 98.893 390.665 98.6622C390.955 98.4314 391.361 98.2726 391.882 98.1857L392.911 98.0141L393.124 99.2924L392.006 99.4789C391.379 99.5835 390.899 99.8459 390.568 100.266C390.246 100.672 390.147 101.243 390.269 101.976L391.151 107.267L389.748 107.501ZM398.851 106.239C398.247 106.34 397.679 106.325 397.146 106.195C396.614 106.065 396.172 105.822 395.821 105.467C395.47 105.112 395.246 104.645 395.149 104.065C395.05 103.473 395.111 102.964 395.332 102.538C395.551 102.1 395.894 101.744 396.359 101.472C396.823 101.188 397.362 100.995 397.978 100.892L400.907 100.404L400.801 99.7647C400.698 99.1492 400.434 98.6944 400.008 98.4005C399.594 98.1046 399.031 98.0158 398.321 98.1342C397.623 98.2506 397.107 98.513 396.773 98.9214C396.438 99.318 396.247 99.8121 396.199 100.404L394.814 100.197C394.876 99.6879 395.028 99.2124 395.27 98.7705C395.511 98.3168 395.866 97.9291 396.335 97.6075C396.815 97.2722 397.416 97.0443 398.138 96.9239C399.25 96.7385 400.163 96.8844 400.875 97.3618C401.585 97.8274 402.027 98.581 402.201 99.6226L402.855 103.546C402.914 103.902 403.109 104.051 403.441 103.996L404.24 103.863L404.438 105.053L403.213 105.257C402.822 105.322 402.491 105.268 402.218 105.094C401.944 104.909 401.777 104.633 401.715 104.266L401.701 104.177L401.488 104.212C401.395 104.459 401.257 104.725 401.073 105.011C400.9 105.284 400.636 105.528 400.283 105.745C399.932 105.974 399.455 106.139 398.851 106.239ZM398.809 105.005C399.638 104.867 400.266 104.513 400.694 103.943C401.132 103.359 401.277 102.623 401.129 101.735L401.097 101.54L398.221 102.02C397.664 102.112 397.223 102.314 396.898 102.623C396.582 102.919 396.465 103.31 396.546 103.795C396.627 104.28 396.873 104.629 397.286 104.84C397.71 105.049 398.218 105.104 398.809 105.005ZM406.359 104.732L404.912 96.0502L406.279 95.8223L406.524 97.296L406.773 97.2546C406.893 96.8087 407.151 96.3826 407.545 95.9762C407.95 95.556 408.596 95.2719 409.484 95.1239C410.135 95.0154 410.737 95.0548 411.292 95.2422C411.858 95.4276 412.339 95.761 412.736 96.2424C413.132 96.7237 413.396 97.355 413.526 98.1362L414.402 103.392L412.999 103.626L412.141 98.4766C411.997 97.6125 411.673 97.0216 411.17 96.704C410.679 96.3845 410.067 96.2858 409.333 96.4082C408.492 96.5483 407.851 96.9349 407.409 97.5682C406.979 98.1995 406.854 99.0537 407.033 100.131L407.762 104.499L406.359 104.732ZM420.964 102.553C420.219 102.678 419.503 102.614 418.816 102.364C418.13 102.113 417.547 101.681 417.067 101.068C416.588 100.454 416.271 99.6859 416.117 98.7627L416.079 98.5319C415.925 97.6086 415.976 96.785 416.233 96.0609C416.487 95.3251 416.892 94.7283 417.449 94.2706C418.015 93.7991 418.677 93.5002 419.434 93.3739C420.038 93.2733 420.561 93.2713 421.003 93.368C421.454 93.4508 421.831 93.5948 422.133 93.8C422.433 93.9933 422.677 94.2142 422.864 94.4628L423.113 94.4214L422.26 89.3079L423.663 89.0741L425.735 101.503L424.367 101.731L424.128 100.292L423.879 100.334C423.715 100.811 423.414 101.263 422.974 101.689C422.534 102.115 421.864 102.403 420.964 102.553ZM421.13 101.248C422.03 101.098 422.71 100.693 423.172 100.032C423.643 99.3573 423.793 98.505 423.622 97.4752L423.595 97.3154C423.423 96.2857 423.006 95.534 422.343 95.0606C421.69 94.5733 420.914 94.4047 420.014 94.5546C419.127 94.7026 418.441 95.1149 417.958 95.7916C417.484 96.4545 417.333 97.3008 417.505 98.3306L417.532 98.4904C417.703 99.5202 418.122 100.278 418.786 100.763C419.461 101.234 420.242 101.396 421.13 101.248ZM432.213 100.678C431.136 100.858 430.183 100.761 429.355 100.388C428.538 100.013 427.963 99.3003 427.629 98.2488L428.911 97.725C429.1 98.2774 429.353 98.6976 429.668 98.9856C429.982 99.2618 430.34 99.4393 430.742 99.5182C431.155 99.5833 431.58 99.5794 432.018 99.5063C432.669 99.3978 433.162 99.1818 433.497 98.8582C433.833 98.5347 433.964 98.154 433.891 97.716C433.816 97.2662 433.58 96.9831 433.184 96.8667C432.797 96.7365 432.28 96.6645 431.633 96.6507L430.884 96.6478C430.312 96.6458 429.779 96.5827 429.283 96.4585C428.788 96.3342 428.376 96.1231 428.047 95.8252C427.717 95.5273 427.509 95.118 427.422 94.5972C427.292 93.816 427.492 93.1561 428.023 92.6175C428.553 92.0789 429.316 91.7267 430.31 91.561C431.293 91.3972 432.123 91.4899 432.802 91.8391C433.49 92.1744 433.99 92.7298 434.302 93.5051L433.045 94.0614C432.833 93.4518 432.506 93.0563 432.062 92.8748C431.616 92.6815 431.097 92.6342 430.506 92.7328C429.914 92.8315 429.465 93.0219 429.159 93.304C428.851 93.5743 428.733 93.9225 428.804 94.3486C428.873 94.7629 429.084 95.044 429.437 95.1919C429.8 95.3261 430.262 95.3951 430.822 95.399L431.571 95.402C432.204 95.4059 432.779 95.4621 433.296 95.5706C433.823 95.6653 434.257 95.8606 434.598 96.1565C434.951 96.4504 435.174 96.8756 435.267 97.4319C435.409 98.2841 435.199 98.9943 434.637 99.5625C434.086 100.129 433.278 100.501 432.213 100.678ZM442.544 98.7007L440.472 86.2721L441.964 86.0235L443.81 97.1027L450.096 96.055L450.321 97.4043L442.544 98.7007ZM452.29 97.0761L450.842 88.3939L452.245 88.1601L453.692 96.8423L452.29 97.0761ZM451.328 86.9261C451.02 86.9774 450.743 86.9202 450.496 86.7545C450.261 86.5869 450.118 86.3491 450.067 86.0414C450.014 85.7218 450.071 85.4446 450.239 85.2098C450.418 84.9731 450.662 84.8291 450.969 84.7778C451.277 84.7265 451.548 84.7847 451.783 84.9524C452.018 85.12 452.162 85.3637 452.215 85.6833C452.267 85.991 452.208 86.2623 452.041 86.497C451.873 86.7318 451.635 86.8748 451.328 86.9261ZM456.642 96.3507L454.57 83.9221L455.973 83.6883L457.192 91.0034L457.44 90.962L460.823 86.7303L462.776 86.4047L458.669 91.4324L464.365 95.0632L462.43 95.3858L457.662 92.2936L457.414 92.335L458.044 96.1168L456.642 96.3507ZM469.746 94.4218C468.87 94.5678 468.07 94.5126 467.346 94.2561C466.62 93.9878 466.017 93.5469 465.538 92.9334C465.058 92.3199 464.745 91.5692 464.597 90.6815L464.561 90.4684C464.411 89.5689 464.463 88.7511 464.718 88.0153C464.972 87.2794 465.395 86.6738 465.984 86.1983C466.572 85.711 467.286 85.3973 468.127 85.2572C468.944 85.1211 469.695 85.1783 470.382 85.4288C471.066 85.6675 471.64 86.0828 472.104 86.6746C472.568 87.2664 472.872 88.0003 473.018 88.8762L473.125 89.5154L466.041 90.6963C466.232 91.6254 466.656 92.309 467.313 92.7469C467.968 93.173 468.722 93.3151 469.574 93.173C470.32 93.0487 470.865 92.7814 471.211 92.371C471.556 91.9607 471.795 91.501 471.93 90.992L473.235 91.3767C473.118 91.7732 472.931 92.1816 472.672 92.6018C472.426 93.02 472.069 93.3959 471.601 93.7293C471.145 94.0607 470.527 94.2916 469.746 94.4218ZM465.866 89.5392L471.512 88.5981C471.331 87.8011 470.948 87.2201 470.364 86.8551C469.792 86.4882 469.115 86.3699 468.334 86.5001C467.541 86.6323 466.927 86.9657 466.493 87.5003C466.059 88.035 465.85 88.7146 465.866 89.5392ZM272.371 150.385L271.581 145.644L265.879 138.693L267.583 138.409L271.916 143.818L272.164 143.777L274.508 137.255L276.212 136.97L273.073 145.395L273.863 150.136L272.371 150.385ZM282.523 148.948C281.647 149.094 280.841 149.04 280.106 148.785C279.382 148.529 278.775 148.101 278.286 147.501C277.806 146.887 277.491 146.125 277.339 145.213L277.3 144.983C277.15 144.083 277.202 143.265 277.457 142.529C277.723 141.792 278.157 141.184 278.759 140.707C279.372 140.227 280.117 139.914 280.993 139.768C281.869 139.622 282.669 139.678 283.393 139.934C284.129 140.189 284.736 140.623 285.216 141.236C285.707 141.848 286.028 142.603 286.178 143.503L286.216 143.734C286.368 144.645 286.311 145.47 286.045 146.207C285.788 146.931 285.353 147.533 284.74 148.013C284.138 148.49 283.399 148.802 282.523 148.948ZM282.313 147.687C283.236 147.533 283.922 147.121 284.37 146.45C284.827 145.766 284.973 144.926 284.808 143.932L284.781 143.772C284.615 142.778 284.206 142.037 283.553 141.55C282.91 141.049 282.126 140.875 281.203 141.029C280.292 141.181 279.607 141.599 279.15 142.284C278.69 142.956 278.543 143.79 278.709 144.784L278.735 144.944C278.901 145.938 279.311 146.685 279.966 147.184C280.619 147.671 281.402 147.839 282.313 147.687ZM292.791 147.145C292.164 147.249 291.561 147.21 290.983 147.027C290.417 146.841 289.936 146.508 289.539 146.026C289.153 145.531 288.895 144.899 288.767 144.13L287.891 138.874L289.294 138.64L290.152 143.789C290.296 144.653 290.613 145.245 291.105 145.565C291.608 145.882 292.226 145.98 292.96 145.858C293.789 145.719 294.424 145.334 294.866 144.701C295.308 144.067 295.439 143.212 295.259 142.135L294.531 137.767L295.934 137.533L297.381 146.216L296.014 146.443L295.768 144.97L295.52 145.011C295.399 145.457 295.137 145.89 294.733 146.31C294.326 146.719 293.679 146.997 292.791 147.145ZM300.316 145.726L298.869 137.044L300.236 136.816L300.414 137.882L300.662 137.84C300.753 137.436 300.943 137.118 301.233 136.887C301.523 136.656 301.929 136.498 302.449 136.411L303.479 136.239L303.692 137.517L302.574 137.704C301.946 137.808 301.467 138.071 301.136 138.491C300.814 138.898 300.714 139.468 300.837 140.202L301.719 145.493L300.316 145.726ZM310.375 144.305C309.298 144.485 308.345 144.388 307.516 144.015C306.699 143.64 306.124 142.927 305.791 141.876L307.072 141.352C307.262 141.904 307.514 142.324 307.83 142.613C308.143 142.889 308.502 143.066 308.904 143.145C309.316 143.21 309.741 143.206 310.179 143.133C310.83 143.025 311.324 142.809 311.659 142.485C311.994 142.162 312.126 141.781 312.053 141.343C311.978 140.893 311.742 140.61 311.345 140.494C310.959 140.363 310.442 140.291 309.795 140.278L309.046 140.275C308.474 140.273 307.94 140.21 307.445 140.085C306.95 139.961 306.538 139.75 306.208 139.452C305.879 139.154 305.67 138.745 305.584 138.224C305.453 137.443 305.654 136.783 306.184 136.244C306.715 135.706 307.477 135.354 308.472 135.188C309.454 135.024 310.285 135.117 310.963 135.466C311.652 135.801 312.152 136.357 312.464 137.132L311.206 137.688C310.995 137.079 310.667 136.683 310.224 136.502C309.778 136.308 309.259 136.261 308.667 136.36C308.075 136.458 307.626 136.649 307.321 136.931C307.013 137.201 306.895 137.549 306.966 137.976C307.035 138.39 307.246 138.671 307.599 138.819C307.962 138.953 308.424 139.022 308.984 139.026L309.732 139.029C310.366 139.033 310.941 139.089 311.458 139.198C311.984 139.292 312.418 139.488 312.76 139.783C313.113 140.077 313.336 140.502 313.429 141.059C313.571 141.911 313.36 142.621 312.798 143.189C312.248 143.756 311.44 144.128 310.375 144.305ZM319.513 138.493L319.297 137.197L332.649 134.972L332.865 136.268L319.513 138.493ZM340.402 139.044L338.331 126.616L343.355 125.778C344.125 125.65 344.822 125.674 345.447 125.849C346.083 126.011 346.607 126.313 347.022 126.755C347.434 127.185 347.697 127.743 347.812 128.429L347.844 128.625C347.981 129.442 347.893 130.119 347.581 130.658C347.269 131.196 346.861 131.593 346.356 131.847L346.398 132.096C346.826 132.037 347.198 132.121 347.516 132.347C347.844 132.56 348.052 132.933 348.141 133.466L348.836 137.638L347.362 137.884L346.696 133.889C346.637 133.534 346.491 133.279 346.258 133.123C346.037 132.965 345.732 132.919 345.341 132.984L341.044 133.7L341.894 138.796L340.402 139.044ZM340.819 132.351L344.211 131.785C345.027 131.649 345.622 131.349 345.995 130.886C346.378 130.408 346.51 129.814 346.392 129.104L346.371 128.98C346.252 128.27 345.942 127.756 345.439 127.438C344.934 127.109 344.267 127.013 343.438 127.151L340.047 127.717L340.819 132.351ZM355.675 136.754C354.799 136.9 353.999 136.845 353.275 136.588C352.549 136.32 351.947 135.879 351.467 135.266C350.988 134.652 350.674 133.901 350.526 133.014L350.491 132.801C350.341 131.901 350.393 131.083 350.647 130.347C350.902 129.612 351.324 129.006 351.914 128.53C352.502 128.043 353.216 127.729 354.056 127.589C354.873 127.453 355.625 127.51 356.311 127.761C356.996 128 357.57 128.415 358.033 129.007C358.497 129.598 358.802 130.332 358.948 131.208L359.054 131.847L351.97 133.028C352.162 133.958 352.586 134.641 353.243 135.079C353.898 135.505 354.651 135.647 355.503 135.505C356.249 135.381 356.795 135.113 357.14 134.703C357.485 134.293 357.725 133.833 357.859 133.324L359.164 133.709C359.048 134.105 358.86 134.514 358.602 134.934C358.355 135.352 357.998 135.728 357.531 136.061C357.075 136.393 356.456 136.624 355.675 136.754ZM351.796 131.871L357.442 130.93C357.26 130.133 356.877 129.552 356.293 129.187C355.721 128.82 355.045 128.702 354.263 128.832C353.47 128.964 352.857 129.298 352.423 129.832C351.989 130.367 351.78 131.047 351.796 131.871ZM364.869 135.221C364.265 135.322 363.697 135.307 363.164 135.177C362.631 135.047 362.19 134.804 361.838 134.449C361.487 134.094 361.263 133.626 361.167 133.046C361.068 132.455 361.129 131.946 361.35 131.52C361.569 131.082 361.911 130.726 362.377 130.454C362.84 130.17 363.38 129.977 363.996 129.874L366.925 129.386L366.819 128.747C366.716 128.131 366.452 127.676 366.025 127.382C365.611 127.087 365.049 126.998 364.339 127.116C363.64 127.233 363.124 127.495 362.791 127.903C362.456 128.3 362.264 128.794 362.217 129.386L360.832 129.179C360.893 128.67 361.045 128.194 361.288 127.752C361.528 127.299 361.884 126.911 362.353 126.59C362.832 126.254 363.433 126.026 364.155 125.906C365.268 125.72 366.18 125.866 366.892 126.344C367.603 126.809 368.045 127.563 368.218 128.605L368.872 132.528C368.932 132.884 369.127 133.033 369.458 132.978L370.257 132.845L370.456 134.035L369.23 134.239C368.84 134.304 368.508 134.25 368.236 134.076C367.962 133.891 367.794 133.614 367.733 133.248L367.718 133.159L367.505 133.194C367.412 133.441 367.274 133.707 367.091 133.993C366.917 134.266 366.654 134.51 366.301 134.727C365.95 134.956 365.472 135.121 364.869 135.221ZM364.827 133.987C365.656 133.849 366.284 133.495 366.712 132.925C367.15 132.341 367.295 131.605 367.147 130.717L367.115 130.522L364.238 131.002C363.682 131.094 363.241 131.296 362.915 131.605C362.6 131.901 362.482 132.292 362.563 132.777C362.644 133.262 362.891 133.611 363.303 133.822C363.727 134.031 364.235 134.086 364.827 133.987ZM372.377 133.714L370.305 121.286L371.707 121.052L373.779 133.481L372.377 133.714ZM381.235 132.238L379.164 119.809L384.188 118.972C384.958 118.843 385.655 118.867 386.281 119.043C386.916 119.204 387.441 119.506 387.855 119.948C388.267 120.378 388.531 120.936 388.645 121.623L388.678 121.818C388.814 122.635 388.726 123.313 388.414 123.851C388.103 124.39 387.694 124.786 387.189 125.041L387.231 125.289C387.659 125.23 388.032 125.314 388.349 125.541C388.677 125.754 388.885 126.127 388.974 126.659L389.669 130.832L388.195 131.077L387.53 127.083C387.47 126.728 387.324 126.472 387.092 126.316C386.871 126.158 386.565 126.112 386.174 126.177L381.877 126.893L382.727 131.989L381.235 132.238ZM381.653 125.544L385.044 124.979C385.86 124.843 386.455 124.543 386.828 124.079C387.211 123.602 387.343 123.008 387.225 122.298L387.204 122.173C387.085 121.463 386.775 120.949 386.272 120.632C385.767 120.302 385.1 120.207 384.271 120.345L380.88 120.91L381.653 125.544ZM396.508 129.947C395.632 130.093 394.832 130.038 394.108 129.782C393.382 129.513 392.78 129.072 392.3 128.459C391.821 127.845 391.507 127.095 391.359 126.207L391.324 125.994C391.174 125.094 391.226 124.277 391.48 123.541C391.735 122.805 392.157 122.199 392.747 121.724C393.335 121.237 394.049 120.923 394.889 120.783C395.706 120.647 396.458 120.704 397.144 120.954C397.829 121.193 398.403 121.608 398.866 122.2C399.33 122.792 399.635 123.526 399.781 124.402L399.887 125.041L392.803 126.222C392.995 127.151 393.419 127.835 394.076 128.272C394.731 128.699 395.484 128.841 396.337 128.699C397.082 128.574 397.628 128.307 397.973 127.897C398.318 127.486 398.558 127.027 398.692 126.518L399.997 126.902C399.881 127.299 399.693 127.707 399.435 128.127C399.188 128.546 398.831 128.921 398.364 129.255C397.908 129.586 397.289 129.817 396.508 129.947ZM392.629 125.065L398.275 124.124C398.093 123.327 397.71 122.746 397.126 122.381C396.554 122.014 395.878 121.895 395.096 122.026C394.303 122.158 393.69 122.491 393.256 123.026C392.822 123.56 392.613 124.24 392.629 125.065ZM406.536 128.276C405.459 128.455 404.506 128.359 403.678 127.986C402.861 127.611 402.286 126.898 401.952 125.846L403.234 125.323C403.423 125.875 403.676 126.295 403.991 126.583C404.305 126.859 404.663 127.037 405.065 127.116C405.478 127.181 405.903 127.177 406.341 127.104C406.992 126.995 407.485 126.779 407.82 126.456C408.156 126.132 408.287 125.751 408.214 125.314C408.139 124.864 407.903 124.581 407.507 124.464C407.12 124.334 406.603 124.262 405.956 124.248L405.207 124.245C404.635 124.243 404.102 124.18 403.606 124.056C403.111 123.932 402.699 123.721 402.37 123.423C402.04 123.125 401.832 122.716 401.745 122.195C401.615 121.413 401.815 120.754 402.346 120.215C402.876 119.676 403.639 119.324 404.633 119.159C405.616 118.995 406.446 119.087 407.125 119.437C407.813 119.772 408.313 120.327 408.625 121.103L407.368 121.659C407.156 121.049 406.829 120.654 406.385 120.472C405.939 120.279 405.42 120.232 404.829 120.33C404.237 120.429 403.788 120.619 403.482 120.901C403.174 121.172 403.056 121.52 403.127 121.946C403.196 122.36 403.407 122.641 403.76 122.789C404.123 122.924 404.585 122.993 405.145 122.997L405.894 122.999C406.527 123.003 407.102 123.06 407.619 123.168C408.146 123.263 408.58 123.458 408.921 123.754C409.274 124.048 409.497 124.473 409.59 125.029C409.732 125.882 409.522 126.592 408.96 127.16C408.409 127.726 407.601 128.098 406.536 128.276ZM415.707 126.656C415.079 126.76 414.477 126.721 413.899 126.537C413.333 126.352 412.851 126.019 412.455 125.537C412.068 125.042 411.811 124.41 411.682 123.64L410.806 118.385L412.209 118.151L413.067 123.3C413.211 124.164 413.529 124.756 414.02 125.076C414.523 125.393 415.142 125.491 415.875 125.369C416.704 125.23 417.339 124.845 417.781 124.211C418.223 123.578 418.354 122.723 418.175 121.646L417.447 117.278L418.849 117.044L420.296 125.726L418.929 125.954L418.684 124.481L418.435 124.522C418.315 124.968 418.052 125.401 417.648 125.821C417.242 126.23 416.595 126.508 415.707 126.656ZM423.231 125.237L421.16 112.809L422.562 112.575L424.634 125.003L423.231 125.237ZM430.779 123.979C430.282 124.062 429.875 123.99 429.557 123.763C429.252 123.534 429.059 123.183 428.98 122.71L427.992 116.779L425.382 117.214L425.178 115.989L427.787 115.554L427.273 112.465L428.675 112.231L429.19 115.321L432.031 114.847L432.235 116.072L429.394 116.546L430.347 122.263C430.407 122.618 430.608 122.767 430.951 122.71L432.886 122.387L433.088 123.594L430.779 123.979ZM439.289 122.816C438.212 122.996 437.259 122.899 436.431 122.526C435.614 122.151 435.039 121.438 434.705 120.387L435.987 119.863C436.176 120.415 436.429 120.835 436.744 121.123C437.058 121.4 437.416 121.577 437.819 121.656C438.231 121.721 438.656 121.717 439.094 121.644C439.745 121.536 440.238 121.32 440.574 120.996C440.909 120.673 441.04 120.292 440.967 119.854C440.892 119.404 440.656 119.121 440.26 119.005C439.873 118.874 439.356 118.802 438.709 118.789L437.961 118.786C437.388 118.784 436.855 118.721 436.36 118.596C435.864 118.472 435.452 118.261 435.123 117.963C434.793 117.665 434.585 117.256 434.498 116.735C434.368 115.954 434.568 115.294 435.099 114.755C435.63 114.217 436.392 113.865 437.386 113.699C438.369 113.535 439.199 113.628 439.878 113.977C440.566 114.312 441.067 114.868 441.378 115.643L440.121 116.199C439.91 115.59 439.582 115.194 439.138 115.013C438.692 114.819 438.174 114.772 437.582 114.871C436.99 114.969 436.541 115.16 436.235 115.442C435.928 115.712 435.809 116.06 435.88 116.486C435.949 116.901 436.16 117.182 436.513 117.33C436.876 117.464 437.338 117.533 437.898 117.537L438.647 117.54C439.28 117.544 439.855 117.6 440.372 117.708C440.899 117.803 441.333 117.998 441.674 118.294C442.027 118.588 442.25 119.013 442.343 119.57C442.485 120.422 442.275 121.132 441.713 121.7C441.162 122.267 440.355 122.638 439.289 122.816ZM445.341 123.833L445.193 122.945L445.708 122.859C446.134 122.788 446.312 122.54 446.241 122.113L446.146 121.545L445.897 121.587C445.554 121.644 445.246 121.586 444.974 121.412C444.714 121.237 444.557 120.989 444.504 120.669C444.446 120.326 444.512 120.029 444.702 119.779C444.903 119.526 445.175 119.371 445.518 119.314C445.862 119.257 446.165 119.322 446.427 119.509C446.689 119.697 446.849 119.962 446.906 120.305L447.182 121.957C447.351 122.975 446.927 123.568 445.909 123.738L445.341 123.833ZM272.904 173.613L270.832 161.185L275.857 160.347C276.626 160.219 277.324 160.242 277.949 160.418C278.584 160.58 279.109 160.882 279.523 161.323C279.936 161.753 280.199 162.312 280.314 162.998L280.346 163.194C280.482 164.01 280.394 164.688 280.083 165.227C279.771 165.765 279.363 166.162 278.858 166.416L278.899 166.665C279.327 166.606 279.7 166.689 280.018 166.916C280.345 167.129 280.553 167.502 280.642 168.035L281.338 172.207L279.864 172.453L279.198 168.458C279.139 168.103 278.993 167.847 278.76 167.692C278.539 167.534 278.233 167.487 277.843 167.553L273.546 168.269L274.395 173.364L272.904 173.613ZM273.321 166.919L276.712 166.354C277.529 166.218 278.124 165.918 278.497 165.454C278.879 164.977 279.012 164.383 278.893 163.673L278.872 163.549C278.754 162.839 278.443 162.325 277.94 162.007C277.435 161.678 276.768 161.582 275.94 161.72L272.549 162.285L273.321 166.919ZM288.177 171.323C287.301 171.469 286.501 171.413 285.777 171.157C285.051 170.889 284.448 170.448 283.969 169.834C283.489 169.221 283.176 168.47 283.028 167.582L282.992 167.369C282.842 166.47 282.894 165.652 283.149 164.916C283.403 164.18 283.826 163.575 284.415 163.099C285.003 162.612 285.717 162.298 286.558 162.158C287.375 162.022 288.126 162.079 288.813 162.33C289.497 162.568 290.071 162.984 290.535 163.576C290.999 164.167 291.303 164.901 291.449 165.777L291.556 166.416L284.472 167.597C284.663 168.526 285.087 169.21 285.744 169.648C286.399 170.074 287.153 170.216 288.005 170.074C288.751 169.95 289.296 169.682 289.641 169.272C289.987 168.862 290.226 168.402 290.361 167.893L291.666 168.278C291.549 168.674 291.362 169.083 291.103 169.503C290.857 169.921 290.5 170.297 290.032 170.63C289.576 170.962 288.958 171.192 288.177 171.323ZM284.297 166.44L289.943 165.499C289.762 164.702 289.379 164.121 288.795 163.756C288.223 163.389 287.546 163.271 286.765 163.401C285.972 163.533 285.358 163.867 284.924 164.401C284.49 164.936 284.281 165.616 284.297 166.44ZM297.37 169.79C296.767 169.891 296.198 169.876 295.666 169.746C295.133 169.616 294.691 169.373 294.34 169.018C293.989 168.663 293.765 168.195 293.668 167.615C293.57 167.023 293.631 166.514 293.852 166.088C294.071 165.65 294.413 165.295 294.878 165.023C295.342 164.739 295.882 164.546 296.497 164.443L299.427 163.955L299.32 163.315C299.218 162.7 298.953 162.245 298.527 161.951C298.113 161.655 297.551 161.567 296.84 161.685C296.142 161.801 295.626 162.064 295.293 162.472C294.957 162.869 294.766 163.363 294.719 163.955L293.334 163.748C293.395 163.239 293.547 162.763 293.789 162.321C294.03 161.868 294.385 161.48 294.855 161.158C295.334 160.823 295.935 160.595 296.657 160.475C297.769 160.289 298.682 160.435 299.394 160.913C300.104 161.378 300.546 162.132 300.72 163.173L301.374 167.097C301.433 167.452 301.628 167.602 301.96 167.547L302.759 167.414L302.957 168.603L301.732 168.808C301.341 168.873 301.01 168.819 300.738 168.645C300.464 168.459 300.296 168.183 300.235 167.816L300.22 167.728L300.007 167.763C299.914 168.01 299.776 168.276 299.593 168.562C299.419 168.834 299.156 169.079 298.802 169.296C298.451 169.525 297.974 169.69 297.37 169.79ZM297.329 168.556C298.157 168.418 298.786 168.064 299.214 167.494C299.652 166.91 299.797 166.174 299.649 165.286L299.616 165.091L296.74 165.57C296.183 165.663 295.743 165.864 295.417 166.174C295.101 166.47 294.984 166.861 295.065 167.346C295.146 167.831 295.392 168.179 295.805 168.391C296.229 168.6 296.737 168.655 297.329 168.556ZM304.878 168.283L302.806 155.855L304.209 155.621L306.281 168.049L304.878 168.283ZM317.898 166.368C316.998 166.518 316.167 166.493 315.403 166.292C314.64 166.09 313.998 165.705 313.477 165.135C312.966 164.551 312.63 163.773 312.468 162.803L312.406 162.43L313.879 162.184L313.942 162.557C314.113 163.587 314.543 164.306 315.232 164.714C315.918 165.111 316.735 165.23 317.682 165.072C318.653 164.91 319.356 164.568 319.792 164.045C320.228 163.523 320.391 162.93 320.28 162.267C320.203 161.805 320.024 161.458 319.742 161.225C319.471 160.991 319.115 160.825 318.673 160.728C318.229 160.62 317.718 160.547 317.14 160.509L316.179 160.432C315.425 160.363 314.747 160.239 314.146 160.059C313.544 159.88 313.047 159.598 312.654 159.213C312.271 158.815 312.022 158.266 311.906 157.568C311.789 156.87 311.86 156.237 312.119 155.671C312.389 155.103 312.815 154.63 313.397 154.254C313.991 153.875 314.702 153.616 315.53 153.478C316.371 153.338 317.147 153.361 317.859 153.546C318.581 153.718 319.179 154.056 319.653 154.561C320.136 155.052 320.449 155.724 320.591 156.576L320.715 157.322L319.241 157.568L319.117 156.822C319.016 156.218 318.805 155.755 318.484 155.431C318.174 155.106 317.779 154.892 317.3 154.789C316.832 154.685 316.315 154.68 315.746 154.774C314.93 154.91 314.303 155.203 313.867 155.653C313.429 156.091 313.266 156.642 313.376 157.305C313.449 157.742 313.615 158.08 313.873 158.317C314.132 158.553 314.471 158.728 314.891 158.84C315.31 158.941 315.802 159.011 316.368 159.05L317.33 159.127C318.077 159.161 318.758 159.266 319.372 159.444C319.995 159.608 320.517 159.892 320.937 160.296C321.355 160.689 321.626 161.252 321.748 161.986C321.87 162.72 321.793 163.389 321.517 163.995C321.241 164.601 320.791 165.114 320.168 165.534C319.554 165.94 318.798 166.218 317.898 166.368ZM327.858 164.453C327.361 164.536 326.953 164.464 326.636 164.237C326.33 164.008 326.137 163.657 326.058 163.183L325.07 157.253L322.46 157.688L322.256 156.463L324.866 156.028L324.351 152.939L325.753 152.705L326.268 155.794L329.109 155.321L329.313 156.546L326.473 157.019L327.426 162.736C327.485 163.091 327.686 163.24 328.029 163.183L329.965 162.861L330.166 164.068L327.858 164.453ZM336.57 163.256C335.694 163.402 334.889 163.348 334.153 163.093C333.429 162.837 332.822 162.409 332.333 161.809C331.853 161.195 331.538 160.433 331.386 159.521L331.347 159.291C331.197 158.391 331.25 157.573 331.504 156.838C331.77 156.1 332.204 155.492 332.806 155.015C333.42 154.535 334.164 154.223 335.04 154.076C335.916 153.93 336.716 153.986 337.44 154.242C338.176 154.497 338.784 154.931 339.263 155.544C339.754 156.156 340.075 156.911 340.225 157.811L340.263 158.042C340.415 158.953 340.358 159.778 340.092 160.516C339.835 161.24 339.4 161.841 338.787 162.321C338.185 162.798 337.446 163.11 336.57 163.256ZM336.36 161.995C337.284 161.841 337.969 161.429 338.417 160.758C338.875 160.074 339.02 159.234 338.855 158.24L338.828 158.08C338.662 157.086 338.253 156.345 337.6 155.858C336.957 155.357 336.174 155.183 335.25 155.337C334.339 155.489 333.654 155.907 333.197 156.592C332.737 157.265 332.59 158.098 332.756 159.092L332.783 159.252C332.948 160.246 333.359 160.993 334.014 161.492C334.667 161.979 335.449 162.147 336.36 161.995ZM343.492 161.847L342.045 153.164L343.412 152.937L343.589 154.002L343.838 153.96C343.929 153.556 344.119 153.238 344.409 153.008C344.699 152.777 345.104 152.618 345.625 152.531L346.655 152.359L346.868 153.638L345.749 153.824C345.122 153.929 344.643 154.191 344.311 154.611C343.99 155.018 343.89 155.588 344.013 156.322L344.894 161.613L343.492 161.847ZM350.185 160.731L348.737 152.049L350.14 151.815L351.587 160.497L350.185 160.731ZM349.223 150.581C348.915 150.632 348.638 150.575 348.391 150.409C348.156 150.242 348.013 150.004 347.962 149.696C347.909 149.377 347.966 149.099 348.134 148.865C348.313 148.628 348.557 148.484 348.865 148.433C349.172 148.381 349.444 148.44 349.678 148.607C349.913 148.775 350.057 149.019 350.11 149.338C350.162 149.646 350.103 149.917 349.936 150.152C349.768 150.387 349.53 150.53 349.223 150.581ZM358.555 159.591C357.679 159.737 356.879 159.682 356.155 159.425C355.429 159.157 354.827 158.716 354.347 158.103C353.868 157.489 353.554 156.739 353.406 155.851L353.371 155.638C353.221 154.738 353.273 153.92 353.527 153.185C353.782 152.449 354.204 151.843 354.794 151.368C355.382 150.88 356.096 150.567 356.936 150.427C357.753 150.29 358.505 150.348 359.191 150.598C359.876 150.837 360.45 151.252 360.914 151.844C361.377 152.436 361.682 153.17 361.828 154.046L361.935 154.685L354.85 155.866C355.042 156.795 355.466 157.478 356.123 157.916C356.778 158.342 357.531 158.484 358.384 158.342C359.129 158.218 359.675 157.951 360.02 157.54C360.365 157.13 360.605 156.67 360.739 156.161L362.044 156.546C361.928 156.943 361.74 157.351 361.482 157.771C361.235 158.189 360.878 158.565 360.411 158.899C359.955 159.23 359.336 159.461 358.555 159.591ZM354.676 154.709L360.322 153.767C360.14 152.97 359.757 152.389 359.174 152.024C358.601 151.658 357.925 151.539 357.144 151.669C356.35 151.802 355.737 152.135 355.303 152.67C354.869 153.204 354.66 153.884 354.676 154.709ZM368.583 157.92C367.506 158.099 366.553 158.002 365.725 157.63C364.908 157.255 364.333 156.542 363.999 155.49L365.281 154.966C365.47 155.519 365.723 155.939 366.038 156.227C366.352 156.503 366.71 156.681 367.112 156.76C367.525 156.825 367.95 156.821 368.388 156.748C369.039 156.639 369.532 156.423 369.867 156.1C370.203 155.776 370.334 155.395 370.261 154.957C370.186 154.508 369.95 154.224 369.554 154.108C369.167 153.978 368.65 153.906 368.003 153.892L367.254 153.889C366.682 153.887 366.149 153.824 365.654 153.7C365.158 153.576 364.746 153.364 364.417 153.067C364.087 152.769 363.879 152.359 363.792 151.839C363.662 151.057 363.862 150.397 364.393 149.859C364.923 149.32 365.686 148.968 366.68 148.802C367.663 148.639 368.493 148.731 369.172 149.08C369.86 149.416 370.361 149.971 370.672 150.746L369.415 151.303C369.203 150.693 368.876 150.298 368.432 150.116C367.986 149.923 367.467 149.876 366.876 149.974C366.284 150.073 365.835 150.263 365.529 150.545C365.221 150.816 365.103 151.164 365.174 151.59C365.243 152.004 365.454 152.285 365.807 152.433C366.17 152.567 366.632 152.636 367.192 152.64L367.941 152.643C368.574 152.647 369.149 152.703 369.666 152.812C370.193 152.907 370.627 153.102 370.968 153.398C371.321 153.692 371.544 154.117 371.637 154.673C371.779 155.525 371.569 156.236 371.007 156.804C370.456 157.37 369.649 157.742 368.583 157.92ZM375.212 156.815C374.869 156.872 374.56 156.808 374.286 156.622C374.023 156.435 373.863 156.164 373.803 155.808C373.744 155.453 373.808 155.145 373.996 154.882C374.195 154.618 374.466 154.457 374.809 154.4C375.165 154.341 375.473 154.405 375.736 154.592C375.998 154.78 376.159 155.051 376.218 155.406C376.277 155.761 376.213 156.07 376.026 156.332C375.838 156.595 375.567 156.755 375.212 156.815Z" fill="white"/>
<path d="M386.316 84.7561L389.199 77.118L384.053 70.9401L387.013 70.4468L390.587 74.9808L390.942 74.9216L392.852 69.4734L395.811 68.9801L392.947 76.4932L398.153 82.783L395.193 83.2763L391.56 78.6305L391.205 78.6896L389.275 84.2628L386.316 84.7561Z" fill="#3DD47E"/>
<path d="M212.819 240.433L241.696 232.306M247.5 271.5L260.892 250.806" stroke="#3DD47E"/>
<path d="M256 242L240.252 260.504" stroke="#3DD47E"/>
<path d="M256 242L240.252 260.504" stroke="#3DD47E"/>
</svg>
