<svg width="253" height="297" viewBox="0 0 253 297" fill="none" xmlns="http://www.w3.org/2000/svg">
<path d="M119.571 123.287C152.564 123.287 182.419 126.278 204.012 131.107C214.812 133.523 223.518 136.392 229.512 139.561C232.509 141.146 234.804 142.794 236.344 144.477C237.881 146.157 238.642 147.845 238.642 149.529C238.642 151.213 237.881 152.901 236.344 154.581C234.804 156.264 232.509 157.911 229.512 159.496C223.518 162.665 214.812 165.534 204.012 167.95C182.419 172.779 152.564 175.77 119.571 175.77C86.5782 175.77 56.7236 172.779 35.1309 167.95C24.3304 165.534 15.6238 162.665 9.62988 159.496C6.63261 157.911 4.33761 156.264 2.79785 154.581C1.2607 152.901 0.50008 151.213 0.5 149.529C0.5 147.845 1.2608 146.157 2.79785 144.477C4.33764 142.794 6.63252 141.146 9.62988 139.561C15.6238 136.392 24.3304 133.523 35.1309 131.107C56.7236 126.278 86.5782 123.287 119.571 123.287Z" stroke="#3DD47E"/>
<path d="M119.571 142.119C152.564 142.119 182.419 145.11 204.012 149.94C214.812 152.355 223.518 155.224 229.512 158.394C232.509 159.979 234.804 161.627 236.344 163.31C237.881 164.99 238.642 166.677 238.642 168.361C238.642 170.046 237.881 171.733 236.344 173.413C234.804 175.096 232.509 176.743 229.512 178.328C223.518 181.497 214.812 184.367 204.012 186.782C182.419 191.611 152.564 194.603 119.571 194.603C86.5782 194.603 56.7236 191.611 35.1309 186.782C24.3304 184.367 15.6238 181.498 9.62988 178.328C6.63261 176.743 4.33761 175.096 2.79785 173.413C1.2607 171.733 0.50008 170.045 0.5 168.361C0.5 166.677 1.2608 164.99 2.79785 163.31C4.33764 161.627 6.63252 159.979 9.62988 158.394C15.6238 155.224 24.3304 152.355 35.1309 149.94C56.7236 145.11 86.5782 142.119 119.571 142.119Z" stroke="#204D25"/>
<path d="M119.571 160.952C152.564 160.952 182.419 163.943 204.012 168.772C214.812 171.187 223.518 174.057 229.512 177.226C232.509 178.811 234.804 180.459 236.344 182.142C237.881 183.822 238.642 185.51 238.642 187.194C238.642 188.878 237.881 190.565 236.344 192.245C234.804 193.928 232.509 195.576 229.512 197.161C223.518 200.33 214.812 203.199 204.012 205.615C182.419 210.444 152.564 213.435 119.571 213.435C86.5782 213.435 56.7236 210.444 35.1309 205.615C24.3304 203.199 15.6238 200.33 9.62988 197.161C6.63261 195.576 4.33761 193.928 2.79785 192.245C1.2607 190.565 0.50008 188.878 0.5 187.194C0.5 185.51 1.2608 183.822 2.79785 182.142C4.33764 180.459 6.63252 178.811 9.62988 177.226C15.6238 174.057 24.3304 171.187 35.1309 168.772C56.7236 163.943 86.5782 160.952 119.571 160.952Z" stroke="#0E390E"/>
<path d="M178.393 50.209L178.56 51.1631L179.241 50.4746L212.035 17.3428L192.55 60.8408L192.181 61.666L193.075 61.541L238.005 55.2441L198.15 78.2861L197.401 78.7188L198.15 79.1523L238.005 102.193L193.075 95.8975L192.181 95.7725L192.55 96.5967L212.035 140.095L179.241 106.964L178.56 106.275L178.393 107.229L170.158 154.522L161.924 107.229L161.758 106.275L161.076 106.964L128.281 140.095L147.768 96.5967L148.137 95.7725L147.242 95.8975L102.312 102.193L142.168 79.1523L142.917 78.7188L142.168 78.2861L102.312 55.2441L147.242 61.541L148.137 61.666L147.768 60.8408L128.281 17.3428L161.076 50.4746L161.758 51.1631L161.924 50.209L170.158 2.91504L178.393 50.209Z" fill="#3DD47E" stroke="black"/>
<path d="M195.983 133.333L208.57 167.277L241.343 156.59L224.264 188.23L252.545 208.848L218.663 214.36L221.156 250.756L195.983 225.988L170.811 250.756L173.304 214.36L139.421 208.848L167.702 188.23L150.624 156.59L183.397 167.277L195.983 133.333Z" fill="#3DD47E"/>
<path d="M79.3801 230.585L95.6105 198.869L111.971 230.585L141.694 247.935L111.971 265.285L95.6105 297L79.3801 265.285L49.5266 247.935L79.3801 230.585Z" fill="#3DD47E"/>
<path d="M107.897 93.9084C132.014 93.9084 151.617 114.734 151.617 140.489C151.617 166.245 132.014 187.07 107.897 187.07C83.7801 187.07 64.1771 166.245 64.177 140.489C64.177 114.734 83.78 93.9086 107.897 93.9084Z" fill="#D9D9D9" stroke="black"/>
<ellipse cx="93.3928" cy="130.32" rx="7.07521" ry="15.0659" fill="black"/>
<path d="M129.476 130.32C129.476 138.64 126.309 145.386 122.401 145.386C118.494 145.386 115.326 138.64 115.326 130.32C115.326 121.999 118.494 115.254 122.401 115.254C126.309 115.254 129.476 121.999 129.476 130.32Z" fill="black"/>
<ellipse cx="94" cy="131" rx="6" ry="9" fill="#FFFAFA"/>
<ellipse cx="122" cy="132" rx="6" ry="9" fill="white"/>
<ellipse cx="108.5" cy="156.5" rx="15.5" ry="3.5" fill="black"/>
</svg>
