<svg width="120" height="98" viewBox="0 0 120 98" fill="none" xmlns="http://www.w3.org/2000/svg">
<rect x="0.140588" y="0.331539" width="33.8121" height="74.0025" rx="9.75" transform="matrix(0.893472 0.343669 -0.331119 0.982488 33.0105 6.72403)" fill="#D9D9D9" stroke="black" stroke-width="0.5"/>
<path d="M42.3953 80.5386C40.2432 86.5261 34.127 89.6531 28.6119 87.532L18.1275 83.4992C12.8229 81.4588 10.1164 75.0761 12.0822 69.243L12.1909 68.9207L42.3953 80.5386Z" fill="white" stroke="black" stroke-width="0.5"/>
<path d="M29.4101 17.9033C31.3175 11.8434 37.4237 8.58728 42.9062 10.7595L53.7578 15.0595C59.0572 17.1591 61.7072 23.5912 59.6698 29.4092L59.6656 29.4216L29.4101 17.9033Z" fill="#EDEDED" stroke="black" stroke-width="0.5"/>
<ellipse cx="2.38278" cy="2.76868" rx="2.38278" ry="2.76868" transform="matrix(0.893472 0.343669 -0.331119 0.982488 24.25 76.6336)" fill="#111111"/>
<path d="M47.6597 5.74475L52.7692 7.71008L52.4358 8.69925L47.3263 6.73391L47.6597 5.74475Z" fill="#D9D9D9"/>
<rect width="4.28901" height="0.503396" rx="0.251698" transform="matrix(0.893472 0.343669 -0.331119 0.982488 46.0852 11.8436)" fill="black"/>
<path d="M46.9644 16.3718C46.8263 16.7815 46.4284 17.0037 46.0756 16.868C45.7229 16.7323 45.5489 16.2902 45.687 15.8805C45.8251 15.4708 46.223 15.2486 46.5757 15.3843C46.9284 15.52 47.1024 15.9621 46.9644 16.3718Z" fill="black"/>
<ellipse cx="0.238278" cy="0.251698" rx="0.238278" ry="0.251698" transform="matrix(0.893472 0.343669 -0.331119 0.982488 47.0474 16.1246)" fill="#090909"/>
<path fill-rule="evenodd" clip-rule="evenodd" d="M30.7342 48.1167C30.6273 48.0773 30.5387 47.9923 30.4889 47.868L28.3975 42.6279C28.3403 42.4855 28.3444 42.3133 28.4093 42.152C28.4741 41.9907 28.5916 41.8602 28.7337 41.7912L33.9552 39.2435C34.2262 39.1096 34.5052 39.2379 34.5795 39.5334C34.6529 39.8261 34.4928 40.1695 34.2213 40.3019L29.5601 42.5757L31.4267 47.2528C31.5354 47.5253 31.4138 47.8829 31.1544 48.053C31.0134 48.1454 30.8613 48.1635 30.7342 48.1167Z" fill="#3DD47E"/>
<path fill-rule="evenodd" clip-rule="evenodd" d="M33.0301 50.2429C32.9825 50.2254 32.9376 50.1986 32.8967 50.1618C32.6963 49.9756 32.694 49.6131 32.8908 49.3508L39.662 40.343C39.8588 40.0807 40.1799 40.0161 40.3816 40.2041C40.5819 40.3904 40.5843 40.7529 40.3875 41.0152L33.6163 50.023C33.4592 50.2309 33.2213 50.3133 33.0301 50.2429Z" fill="black"/>
<path fill-rule="evenodd" clip-rule="evenodd" d="M38.9647 51.147C38.8376 51.1002 38.7373 50.9892 38.6973 50.8301C38.6238 50.5374 38.7839 50.1941 39.0555 50.0616L43.7177 47.7884L41.8491 43.1108C41.7402 42.8382 41.8618 42.4807 42.1213 42.3106C42.3817 42.1383 42.6792 42.2236 42.7881 42.4961L44.8819 47.7369C44.9382 47.8789 44.9341 48.0511 44.8693 48.2124C44.8044 48.3737 44.6869 48.5041 44.5447 48.5731L39.3211 51.1198C39.1971 51.1802 39.0718 51.1864 38.9647 51.147Z" fill="#3DD47E"/>
<rect x="62.3123" y="33.8622" width="51.2876" height="39.2199" rx="4.52538" transform="rotate(12.1499 62.3123 33.8622)" fill="white"/>
<path fill-rule="evenodd" clip-rule="evenodd" d="M75.9707 65.3622C75.8893 65.3251 75.811 65.271 75.7382 65.1986C75.3802 64.8328 75.3277 64.1575 75.6197 63.6877L85.6678 47.5569C85.9597 47.087 86.4848 46.9974 86.8452 47.3666C87.2032 47.7324 87.2557 48.4077 86.9637 48.8775L76.9156 65.0083C76.6824 65.3807 76.298 65.5114 75.9707 65.3622Z" fill="#E41616"/>
<path fill-rule="evenodd" clip-rule="evenodd" d="M85.3208 66.5341C85.1188 66.442 84.9494 66.2441 84.8661 65.9713C84.7132 65.4694 84.9128 64.9058 85.3129 64.71L92.1791 61.3491L88.667 53.2551C88.4623 52.7835 88.6009 52.1921 88.9771 51.9314C89.3544 51.667 89.8239 51.8417 90.0285 52.3132L93.9638 61.3817C94.0698 61.6275 94.0869 61.9179 94.0091 62.1837C93.9313 62.4496 93.7681 62.6578 93.5587 62.7597L85.8656 66.5249C85.683 66.6141 85.4909 66.6117 85.3208 66.5341Z" fill="#094504"/>
<path fill-rule="evenodd" clip-rule="evenodd" d="M73.7481 60.8915C73.576 60.8215 73.4239 60.6755 73.3245 60.4647L69.1421 51.5786C69.0279 51.3371 69.0028 51.0477 69.0732 50.7787C69.1436 50.5096 69.3009 50.2943 69.5073 50.1832L77.0893 46.0806C77.4826 45.8648 77.9361 46.0902 78.1047 46.5899C78.2714 47.0847 78.0875 47.6566 77.6932 47.87L70.9246 51.5315L74.6573 59.4627C74.8748 59.9248 74.7527 60.5219 74.3841 60.799C74.1836 60.9495 73.9525 60.9746 73.7481 60.8915L73.7481 60.8915Z" fill="#094504"/>
<path fill-rule="evenodd" clip-rule="evenodd" d="M99.4832 74.0581C99.0685 73.9312 98.8002 73.484 98.8844 73.0599L103.766 48.4775C103.85 48.055 103.582 47.6063 103.167 47.4793L68.6057 36.8986C68.191 36.7717 67.7857 37.0143 67.7018 37.4368L62.8202 62.0192C62.736 62.4433 62.331 62.6844 61.9163 62.5574C61.5016 62.4304 61.2333 61.9832 61.3175 61.5592L66.1992 36.9768C66.4515 35.7062 67.6681 34.9818 68.9108 35.3622L103.472 45.9429C104.715 46.3234 105.521 47.6669 105.269 48.9376L100.387 73.52C100.303 73.944 99.898 74.1851 99.4832 74.0581L99.4832 74.0581Z" fill="black"/>
<path fill-rule="evenodd" clip-rule="evenodd" d="M98.2653 80.2023L60.6945 68.7004C58.6221 68.0659 57.2794 65.8279 57.7002 63.7092C57.7844 63.2851 58.1893 63.044 58.6041 63.171L75.1353 68.2319C75.5501 68.3588 75.8184 68.8061 75.7342 69.2301C75.6499 69.6541 75.245 69.8952 74.8302 69.7683L59.1797 64.977C59.3117 65.966 60.0197 66.864 60.9996 67.164L98.5704 78.6659C99.5503 78.9659 100.513 78.5794 101.001 77.78L85.35 72.9888C84.9352 72.8618 84.667 72.4146 84.7512 71.9906C84.8354 71.5665 85.2404 71.3254 85.6551 71.4524L102.186 76.5132C102.601 76.6402 102.869 77.0874 102.785 77.5115C102.364 79.6302 100.338 80.8367 98.2653 80.2023Z" fill="black"/>
</svg>
