<svg width="72" height="139" viewBox="0 0 72 139" fill="none" xmlns="http://www.w3.org/2000/svg">
<rect x="0.140588" y="0.331539" width="33.8121" height="74.0025" rx="9.75" transform="matrix(0.893472 0.343669 -0.331119 0.982488 33.0105 6.72403)" fill="#D9D9D9" stroke="black" stroke-width="0.5"/>
<path d="M42.3953 80.5386C40.2432 86.5261 34.127 89.6531 28.6119 87.532L18.1275 83.4992C12.8229 81.4588 10.1164 75.0761 12.0822 69.243L12.1909 68.9207L42.3953 80.5386Z" fill="white" stroke="black" stroke-width="0.5"/>
<path d="M29.4101 17.9033C31.3175 11.8434 37.4237 8.58728 42.9062 10.7595L53.7578 15.0595C59.0572 17.1591 61.7072 23.5912 59.6698 29.4092L59.6656 29.4216L29.4101 17.9033Z" fill="#EDEDED" stroke="black" stroke-width="0.5"/>
<ellipse cx="2.38278" cy="2.76868" rx="2.38278" ry="2.76868" transform="matrix(0.893472 0.343669 -0.331119 0.982488 24.25 76.6336)" fill="#111111"/>
<path d="M47.6597 5.74475L52.7692 7.71008L52.4358 8.69925L47.3263 6.73391L47.6597 5.74475Z" fill="#D9D9D9"/>
<rect width="4.28901" height="0.503396" rx="0.251698" transform="matrix(0.893472 0.343669 -0.331119 0.982488 46.0852 11.8436)" fill="black"/>
<path d="M46.9644 16.3718C46.8263 16.7815 46.4284 17.0037 46.0756 16.868C45.7229 16.7323 45.5489 16.2902 45.687 15.8805C45.8251 15.4708 46.223 15.2486 46.5757 15.3843C46.9284 15.52 47.1024 15.9621 46.9644 16.3718Z" fill="black"/>
<ellipse cx="0.238278" cy="0.251698" rx="0.238278" ry="0.251698" transform="matrix(0.893472 0.343669 -0.331119 0.982488 47.0474 16.1246)" fill="#090909"/>
<path fill-rule="evenodd" clip-rule="evenodd" d="M30.7342 48.1167C30.6273 48.0773 30.5387 47.9923 30.4889 47.868L28.3975 42.6279C28.3403 42.4855 28.3444 42.3133 28.4093 42.152C28.4741 41.9907 28.5916 41.8602 28.7337 41.7912L33.9552 39.2435C34.2262 39.1096 34.5052 39.2379 34.5795 39.5334C34.6529 39.8261 34.4928 40.1695 34.2213 40.3019L29.5601 42.5757L31.4267 47.2528C31.5354 47.5253 31.4138 47.8829 31.1544 48.053C31.0134 48.1454 30.8613 48.1635 30.7342 48.1167Z" fill="#3DD47E"/>
<path fill-rule="evenodd" clip-rule="evenodd" d="M33.0301 50.2429C32.9825 50.2254 32.9376 50.1986 32.8967 50.1618C32.6963 49.9756 32.694 49.6131 32.8908 49.3508L39.662 40.343C39.8588 40.0807 40.1799 40.0161 40.3816 40.2041C40.5819 40.3904 40.5843 40.7529 40.3875 41.0152L33.6163 50.023C33.4592 50.2309 33.2213 50.3133 33.0301 50.2429Z" fill="black"/>
<path fill-rule="evenodd" clip-rule="evenodd" d="M38.9647 51.147C38.8376 51.1002 38.7373 50.9892 38.6973 50.8301C38.6238 50.5374 38.7839 50.1941 39.0555 50.0616L43.7177 47.7884L41.8491 43.1108C41.7402 42.8382 41.8618 42.4807 42.1213 42.3106C42.3817 42.1383 42.6792 42.2236 42.7881 42.4961L44.8819 47.7369C44.9382 47.8789 44.9341 48.0511 44.8693 48.2124C44.8044 48.3737 44.6869 48.5041 44.5447 48.5731L39.3211 51.1198C39.1971 51.1802 39.0718 51.1864 38.9647 51.147Z" fill="#3DD47E"/>
<rect x="15.1733" y="99.5604" width="34" height="26" rx="3" transform="rotate(12.1499 15.1733 99.5604)" fill="white"/>
<path fill-rule="evenodd" clip-rule="evenodd" d="M24.2279 120.443C24.1739 120.418 24.122 120.382 24.0737 120.334C23.8364 120.092 23.8016 119.644 23.9952 119.333L30.6563 108.639C30.8499 108.327 31.1979 108.268 31.4369 108.513C31.6742 108.755 31.709 109.203 31.5155 109.514L24.8543 120.208C24.6997 120.455 24.4448 120.542 24.2279 120.443Z" fill="#E41616"/>
<path fill-rule="evenodd" clip-rule="evenodd" d="M30.4262 121.219C30.2923 121.158 30.1799 121.027 30.1248 120.846C30.0234 120.514 30.1557 120.14 30.4209 120.01L34.9727 117.782L32.6445 112.416C32.5088 112.104 32.6007 111.712 32.8501 111.539C33.1002 111.364 33.4114 111.479 33.5471 111.792L36.1559 117.804C36.2262 117.967 36.2375 118.159 36.1859 118.335C36.1343 118.512 36.0262 118.65 35.8873 118.717L30.7874 121.213C30.6663 121.272 30.539 121.271 30.4262 121.219Z" fill="#094504"/>
<path fill-rule="evenodd" clip-rule="evenodd" d="M22.7545 117.479C22.6404 117.432 22.5395 117.336 22.4737 117.196L19.701 111.305C19.6253 111.145 19.6087 110.953 19.6554 110.775C19.702 110.596 19.8063 110.454 19.9431 110.38L24.9695 107.66C25.2302 107.517 25.5308 107.667 25.6426 107.998C25.7531 108.326 25.6312 108.705 25.3698 108.846L20.8827 111.274L23.3572 116.532C23.5014 116.838 23.4205 117.234 23.1761 117.418C23.0432 117.517 22.89 117.534 22.7545 117.479L22.7545 117.479Z" fill="#094504"/>
<path fill-rule="evenodd" clip-rule="evenodd" d="M39.8149 126.207C39.5399 126.123 39.3621 125.827 39.4179 125.546L42.6541 109.249C42.7097 108.969 42.5321 108.672 42.2572 108.588L19.3453 101.573C19.0704 101.489 18.8017 101.65 18.7461 101.93L15.5099 118.226C15.4541 118.508 15.1857 118.667 14.9107 118.583C14.6358 118.499 14.4579 118.203 14.5138 117.921L17.75 101.625C17.9172 100.783 18.7238 100.303 19.5476 100.555L42.4594 107.569C43.2833 107.821 43.8176 108.712 43.6503 109.554L40.4141 125.851C40.3583 126.132 40.0898 126.292 39.8149 126.207L39.8149 126.207Z" fill="black"/>
<path fill-rule="evenodd" clip-rule="evenodd" d="M39.0075 130.28L14.1007 122.656C12.7269 122.235 11.8368 120.751 12.1157 119.347C12.1715 119.066 12.44 118.906 12.715 118.99L23.6739 122.345C23.9489 122.429 24.1268 122.726 24.0709 123.007C24.0151 123.288 23.7466 123.448 23.4717 123.363L13.0965 120.187C13.184 120.843 13.6534 121.438 14.303 121.637L39.2097 129.262C39.8593 129.461 40.4978 129.205 40.8207 128.675L30.4456 125.498C30.1706 125.414 29.9927 125.118 30.0486 124.837C30.1044 124.556 30.3729 124.396 30.6478 124.48L41.6068 127.835C41.8818 127.919 42.0596 128.216 42.0038 128.497C41.7249 129.901 40.3813 130.701 39.0075 130.28Z" fill="black"/>
</svg>
